<svg width="25" height="29" viewBox="0 0 25 29" fill="none" xmlns="http://www.w3.org/2000/svg">
<path fill-rule="evenodd" clip-rule="evenodd" d="M12 25.75C17.2467 25.75 21.5 21.4967 21.5 16.25C21.5 11.0033 17.2467 6.75 12 6.75C6.75329 6.75 2.5 11.0033 2.5 16.25C2.5 21.4967 6.75329 25.75 12 25.75ZM12 28.25C18.6274 28.25 24 22.8774 24 16.25C24 9.62258 18.6274 4.25 12 4.25C5.37258 4.25 0 9.62258 0 16.25C0 22.8774 5.37258 28.25 12 28.25Z" fill="#1E202C"/>
<path fill-rule="evenodd" clip-rule="evenodd" d="M10.75 16.5V10.25C10.75 9.55964 11.3096 9 12 9C12.6904 9 13.25 9.55964 13.25 10.25V16.5C13.25 17.1904 12.6904 17.75 12 17.75C11.3096 17.75 10.75 17.1904 10.75 16.5Z" fill="#1E202C"/>
<path fill-rule="evenodd" clip-rule="evenodd" d="M16.25 1.25C16.25 1.94036 15.6904 2.5 15 2.5L9 2.5C8.30964 2.5 7.75 1.94036 7.75 1.25C7.75 0.559644 8.30964 -6.03529e-08 9 0L15 5.24537e-07C15.6904 5.8489e-07 16.25 0.559645 16.25 1.25Z" fill="#1E202C"/>
<path fill-rule="evenodd" clip-rule="evenodd" d="M22.8839 4.36611L23.8839 5.36611C24.372 5.85427 24.372 6.64572 23.8839 7.13388C23.3957 7.62203 22.6043 7.62203 22.1161 7.13388L21.1161 6.13388C20.628 5.64572 20.628 4.85427 21.1161 4.36611C21.6043 3.87796 22.3957 3.87796 22.8839 4.36611Z" fill="#1E202C"/>
</svg>
