<svg width="28" height="24" viewBox="0 0 28 24" fill="none" xmlns="http://www.w3.org/2000/svg">
<path fill-rule="evenodd" clip-rule="evenodd" d="M14 5.73778L12.1845 4.05032C11.2376 3.17022 9.98776 2.66667 8.61107 2.66667C5.70256 2.66667 3.33329 5.03797 3.33329 7.93343C3.33329 8.94515 3.75943 10.2317 4.69318 11.7522C5.60945 13.2443 6.88691 14.755 8.2734 16.1606C10.5084 18.4263 12.856 20.2487 13.989 21.0878C15.1218 20.1976 17.4806 18.2636 19.7267 15.9321C21.1189 14.4871 22.4033 12.9551 23.3243 11.4804C24.2754 9.95762 24.6666 8.76771 24.6666 7.94452C24.6666 5.03554 22.2949 2.66667 19.3888 2.66667C18.0122 2.66667 16.7623 3.17022 15.8154 4.05032L14 5.73778ZM13.0333 23.6893C11.7666 22.7906 0.666626 14.7573 0.666626 7.93343C0.666626 3.56172 4.23329 0 8.61107 0C10.6555 0 12.5555 0.754507 14 2.09709C15.4444 0.754507 17.3444 0 19.3888 0C23.7666 0 27.3333 3.56172 27.3333 7.94452C27.3333 14.1692 16.2777 22.7129 15.0111 23.6671C14.7111 23.889 14.3555 24 14 24C13.6555 24 13.3222 23.889 13.0333 23.6893Z" fill="#1E202C"/>
</svg>
