<svg width="28" height="28" viewBox="0 0 28 28" fill="none" xmlns="http://www.w3.org/2000/svg">
<path fill-rule="evenodd" clip-rule="evenodd" d="M26.9428 1.05706C27.2827 1.39698 27.4133 1.89355 27.2847 2.35673L20.618 26.3567C20.4813 26.8488 20.0756 27.2196 19.5732 27.3114C19.0709 27.4033 18.5601 27.2002 18.2581 26.7884L11.0461 16.9538L1.21152 9.74174C0.799684 9.43973 0.596543 8.92901 0.688426 8.42664C0.780309 7.92427 1.15107 7.51853 1.64314 7.38184L25.6431 0.715178C26.1063 0.586518 26.6029 0.717143 26.9428 1.05706ZM13.7517 16.1338L18.7839 22.996L23.3587 6.52678L13.7517 16.1338ZM21.4731 4.64116L11.866 14.2482L5.00387 9.21594L21.4731 4.64116Z" fill="#1E202C"/>
</svg>
