<svg width="28" height="25" viewBox="0 0 28 25" fill="none" xmlns="http://www.w3.org/2000/svg">
<path d="M19.6005 0.531664C20.0428 -0.0571201 20.8786 -0.175907 21.4674 0.266346C25.0268 2.93989 27.3333 7.20082 27.3333 12.0001C27.3333 16.7993 25.0268 21.0603 21.4674 23.7338C20.8786 24.1761 20.0428 24.0573 19.6005 23.4685C19.1583 22.8797 19.2771 22.0439 19.8659 21.6016C22.7835 19.4101 24.6666 15.9252 24.6666 12.0001C24.6666 8.07498 22.7835 4.59008 19.8659 2.39852C19.2771 1.95627 19.1583 1.12045 19.6005 0.531664Z" fill="#1E202C"/>
<path fill-rule="evenodd" clip-rule="evenodd" d="M15.3333 1.3334C15.3333 0.808341 15.0252 0.33217 14.5462 0.117077C14.0672 -0.0980152 13.5066 -0.0119768 13.1142 0.336852L7.49302 5.33342H4.66663C2.45749 5.33342 0.666626 7.12428 0.666626 9.33342V14.6668C0.666626 16.8759 2.45749 18.6668 4.66663 18.6668H7.49307L13.1142 23.6633C13.5066 24.0121 14.0672 24.0981 14.5462 23.8831C15.0252 23.668 15.3333 23.1918 15.3333 22.6667V1.3334ZM9.99996 17.3272L12.6666 19.6976V4.30252L9.99996 6.67291V17.3272ZM4.66663 8.00009H7.33329V16.0001H4.66663C3.93025 16.0001 3.33329 15.4031 3.33329 14.6668V9.33342C3.33329 8.59704 3.93025 8.00009 4.66663 8.00009Z" fill="#1E202C"/>
<path d="M18.7628 5.57316C18.1588 5.15188 17.3277 5.29998 16.9064 5.90395C16.4851 6.50791 16.6332 7.33904 17.2372 7.76032C18.507 8.64605 19.3333 10.1135 19.3333 11.7737C19.3333 13.4339 18.507 14.9013 17.2372 15.787C16.6332 16.2083 16.4851 17.0395 16.9064 17.6434C17.3277 18.2474 18.1588 18.3955 18.7628 17.9742C20.7169 16.6111 22 14.3424 22 11.7737C22 9.20502 20.7169 6.93623 18.7628 5.57316Z" fill="#1E202C"/>
</svg>
