<svg width="28" height="24" viewBox="0 0 28 24" fill="none" xmlns="http://www.w3.org/2000/svg">
<path fill-rule="evenodd" clip-rule="evenodd" d="M10.2095 4.40382C10.7289 3.68242 11.5689 3.25 12.4489 3.25H15.5511C16.4311 3.25 17.2711 3.68242 17.7905 4.40382C18.7684 5.76202 20.3498 6.58333 22.0324 6.58333C23.5333 6.58333 24.75 7.80006 24.75 9.30097V18C24.75 19.5188 23.5188 20.75 22 20.75H6C4.48122 20.75 3.25 19.5188 3.25 18V9.30098C3.25 7.80006 4.46673 6.58333 5.96764 6.58333C7.65019 6.58333 9.23164 5.76202 10.2095 4.40382ZM12.4489 0.75C10.756 0.75 9.1647 1.5764 8.18071 2.94305C7.66739 3.656 6.83724 4.08333 5.96764 4.08333C3.08602 4.08333 0.75 6.41935 0.75 9.30098V18C0.75 20.8995 3.10051 23.25 6 23.25H22C24.8995 23.25 27.25 20.8995 27.25 18V9.30097C27.25 6.41935 24.914 4.08333 22.0324 4.08333C21.1628 4.08333 20.3326 3.656 19.8193 2.94305C18.8353 1.5764 17.244 0.75 15.5511 0.75H12.4489ZM10.25 13C10.25 10.9289 11.9289 9.25 14 9.25C16.0711 9.25 17.75 10.9289 17.75 13C17.75 15.0711 16.0711 16.75 14 16.75C11.9289 16.75 10.25 15.0711 10.25 13ZM14 6.75C10.5482 6.75 7.75 9.54822 7.75 13C7.75 16.4518 10.5482 19.25 14 19.25C17.4518 19.25 20.25 16.4518 20.25 13C20.25 9.54822 17.4518 6.75 14 6.75Z" fill="#1E202C"/>
</svg>
