<svg width="30" height="22" viewBox="0 0 30 22" fill="none" xmlns="http://www.w3.org/2000/svg">
<path fill-rule="evenodd" clip-rule="evenodd" d="M3.27024 11.8325C3.03297 11.4971 2.8393 11.2057 2.69148 10.9754C2.82647 10.7491 3.00292 10.4648 3.21993 10.1383C3.79918 9.26697 4.65923 8.10774 5.78125 6.95292C8.04436 4.62363 11.2386 2.44444 15.25 2.44444C19.251 2.44444 22.3149 4.6136 24.4459 6.92873C25.504 8.07832 26.3016 9.23281 26.8344 10.1011C27.0459 10.4458 27.2145 10.7433 27.3398 10.9747C27.2017 11.2099 27.0159 11.5142 26.7839 11.8677C26.2106 12.7413 25.3638 13.9026 24.2699 15.0589C22.0552 17.4 18.9895 19.5556 15.25 19.5556C11.4992 19.5556 8.30424 17.3891 5.9575 15.0357C4.79969 13.8745 3.89022 12.709 3.27024 11.8325ZM29.8895 10.4975C29.8897 10.498 29.8899 10.4984 28.75 11L29.8676 11.5474L29.8671 11.5485L29.8656 11.5513L29.8614 11.5596L29.8473 11.5865C29.8354 11.6091 29.8186 11.6407 29.797 11.6808C29.7537 11.7609 29.6909 11.8749 29.6089 12.0179C29.4449 12.3038 29.2037 12.7068 28.888 13.1878C28.2582 14.1476 27.3237 15.4307 26.1051 16.7188C23.6948 19.2667 20.0105 22 15.25 22C10.5008 22 6.69576 19.2776 4.1675 16.7421C2.88781 15.4588 1.89103 14.1799 1.21414 13.223C0.874913 12.7435 0.61399 12.3419 0.436139 12.0572C0.347167 11.9147 0.278844 11.8013 0.231772 11.7217C0.208232 11.6819 0.189993 11.6505 0.177131 11.6282L0.161875 11.6016L0.157285 11.5935L0.15473 11.589L1.25 11C0.131966 10.4534 0.132182 10.453 0.132417 10.4525L0.132985 10.4514L0.134468 10.4485L0.138828 10.4401L0.153113 10.4128C0.165105 10.39 0.182038 10.3581 0.203884 10.3178C0.247566 10.2372 0.310942 10.1228 0.393784 9.97921C0.559374 9.69228 0.803306 9.28827 1.12382 8.80613C1.76332 7.84414 2.71577 6.55893 3.96875 5.26931C6.45563 2.70971 10.2614 0 15.25 0C20.249 0 23.9351 2.71973 26.3041 5.29349C27.496 6.58834 28.3859 7.8783 28.9781 8.84339C29.275 9.32719 29.4991 9.73269 29.6507 10.0209C29.7265 10.1651 29.7843 10.2802 29.8242 10.3613C29.8441 10.4019 29.8595 10.434 29.8705 10.457L29.8835 10.4848L29.8876 10.4934L29.8889 10.4964L29.8895 10.4975ZM0.15473 11.589C-0.0432075 11.2371 -0.0517173 10.8126 0.131966 10.4534L1.25 11C0.162331 11.5849 0.154552 11.5886 0.154726 11.589L0.15473 11.589ZM29.8676 11.5474C30.0356 11.219 30.044 10.8333 29.8899 10.4984L28.75 11C29.868 11.5466 29.8678 11.547 29.8676 11.5474ZM18.75 11C18.75 12.89 17.183 14.4222 15.25 14.4222C13.317 14.4222 11.75 12.89 11.75 11C11.75 9.10996 13.317 7.57778 15.25 7.57778C17.183 7.57778 18.75 9.10996 18.75 11ZM21.25 11C21.25 14.2401 18.5637 16.8667 15.25 16.8667C11.9363 16.8667 9.25 14.2401 9.25 11C9.25 7.75993 11.9363 5.13333 15.25 5.13333C18.5637 5.13333 21.25 7.75993 21.25 11Z" fill="#1E202C"/>
</svg>
