<svg width="24" height="28" viewBox="0 0 24 28" fill="none" xmlns="http://www.w3.org/2000/svg">
<path d="M6.66667 6.00008C5.93029 6.00008 5.33333 6.59704 5.33333 7.33342C5.33333 8.06979 5.93029 8.66675 6.66667 8.66675H17.3333C18.0697 8.66675 18.6667 8.06979 18.6667 7.33342C18.6667 6.59704 18.0697 6.00008 17.3333 6.00008H6.66667Z" fill="#1E202C"/>
<path d="M5.33333 12.6667C5.33333 11.9304 5.93029 11.3334 6.66667 11.3334H17.3333C18.0697 11.3334 18.6667 11.9304 18.6667 12.6667C18.6667 13.4031 18.0697 14.0001 17.3333 14.0001H6.66667C5.93029 14.0001 5.33333 13.4031 5.33333 12.6667Z" fill="#1E202C"/>
<path d="M6.66667 16.6667C5.93029 16.6667 5.33333 17.2637 5.33333 18.0001C5.33333 18.7365 5.93029 19.3334 6.66667 19.3334H12C12.7364 19.3334 13.3333 18.7365 13.3333 18.0001C13.3333 17.2637 12.7364 16.6667 12 16.6667H6.66667Z" fill="#1E202C"/>
<path fill-rule="evenodd" clip-rule="evenodd" d="M2.66667 0.666748C1.19391 0.666748 0 1.86066 0 3.33342V24.6667C0 26.1395 1.19391 27.3334 2.66667 27.3334H21.3333C22.8061 27.3334 24 26.1395 24 24.6667V3.33341C24 1.86066 22.8061 0.666748 21.3333 0.666748H2.66667ZM21.3333 3.33341H2.66667L2.66667 24.6667H14.0829L21.3333 16.8121V3.33341ZM21.3333 24.6667H17.712L21.3333 20.7436V24.6667Z" fill="#1E202C"/>
</svg>
