<svg width="28" height="28" viewBox="0 0 28 28" fill="none" xmlns="http://www.w3.org/2000/svg">
<path fill-rule="evenodd" clip-rule="evenodd" d="M18.0001 14.0001C18.0001 16.2092 16.2092 18.0001 14.0001 18.0001C11.7909 18.0001 10.0001 16.2092 10.0001 14.0001C10.0001 11.7909 11.7909 10.0001 14.0001 10.0001C16.2092 10.0001 18.0001 11.7909 18.0001 14.0001ZM15.3334 14.0001C15.3334 14.7365 14.7365 15.3334 14.0001 15.3334C13.2637 15.3334 12.6667 14.7365 12.6667 14.0001C12.6667 13.2637 13.2637 12.6667 14.0001 12.6667C14.7365 12.6667 15.3334 13.2637 15.3334 14.0001Z" fill="#1E202C"/>
<path fill-rule="evenodd" clip-rule="evenodd" d="M14.0001 0.666748C12.9944 0.666748 12.3039 1.22338 11.8852 1.81376C11.4993 2.35786 11.2775 3.01196 11.1304 3.51539C11.0597 3.75768 10.997 4.00004 10.9425 4.21044L10.9284 4.26487C10.8706 4.48792 10.8237 4.66527 10.7779 4.81315C10.3272 4.97121 9.89184 5.16142 9.47447 5.38096C9.37646 5.32162 9.26445 5.25032 9.13188 5.16499L9.06084 5.11922C8.8976 5.01399 8.71033 4.89327 8.51984 4.77752C8.10419 4.52493 7.53224 4.20563 6.92223 4.06573C6.26222 3.91437 5.37164 3.94289 4.65726 4.65727C3.94832 5.36621 3.91254 6.25412 4.04437 6.90786C4.16845 7.52318 4.46717 8.10874 4.70971 8.54249C4.82368 8.74632 4.94258 8.94599 5.0463 9.12019L5.08183 9.17988C5.17807 9.34167 5.25675 9.47536 5.32053 9.59136C5.12638 9.97293 4.95658 10.3691 4.81322 10.7779C4.66534 10.8237 4.48799 10.8705 4.26494 10.9283L4.21063 10.9424C4.00021 10.9969 3.75776 11.0596 3.51544 11.1304C3.012 11.2774 2.35788 11.4992 1.81377 11.8851C1.22337 12.3038 0.666748 12.9943 0.666748 14.0001C0.666748 15.0058 1.22337 15.6963 1.81377 16.1151C2.35788 16.501 3.012 16.7228 3.51544 16.8698C3.75781 16.9406 4.00026 17.0033 4.21071 17.0578L4.26494 17.0718C4.48799 17.1296 4.66534 17.1765 4.81322 17.2223C4.95428 17.6245 5.12094 18.0145 5.3112 18.3904C5.24719 18.5003 5.16949 18.6262 5.07495 18.7785L5.05607 18.8089C4.9445 18.9885 4.81467 19.1976 4.69013 19.4133C4.43985 19.8469 4.13075 20.4393 4.0096 21.0736C3.87771 21.7642 3.95307 22.6387 4.65726 23.3429C5.36559 24.0512 6.24264 24.1218 6.94042 23.9697C7.57009 23.8324 8.14889 23.5019 8.56429 23.2414C8.76647 23.1146 8.96284 22.9827 9.13142 22.8694L9.17373 22.8409C9.29717 22.758 9.40178 22.6883 9.49384 22.6294C9.9053 22.8446 10.3342 23.0314 10.7779 23.187C10.8237 23.3349 10.8706 23.5122 10.9284 23.7353L10.9424 23.7895C10.9969 24 11.0597 24.2424 11.1304 24.4848C11.2775 24.9882 11.4993 25.6423 11.8852 26.1864C12.3039 26.7768 12.9944 27.3334 14.0001 27.3334C15.0059 27.3334 15.6964 26.7768 16.1151 26.1864C16.501 25.6423 16.7228 24.9882 16.8698 24.4848C16.9406 24.2424 17.0033 23.9999 17.0578 23.7895L17.0718 23.7353C17.1296 23.5122 17.1765 23.3349 17.2223 23.187C17.666 23.0314 18.0949 22.8446 18.5064 22.6294C18.5985 22.6883 18.7031 22.758 18.8265 22.8409L18.8689 22.8694C19.0375 22.9827 19.2338 23.1146 19.4359 23.2414C19.8513 23.5018 20.4301 23.8323 21.0598 23.9697C21.7576 24.1218 22.6346 24.0512 23.3429 23.3429C24.0471 22.6387 24.1224 21.7642 23.9905 21.0736C23.8694 20.4393 23.5603 19.847 23.3101 19.4134C23.1855 19.1976 23.0557 18.9886 22.9442 18.809L22.9253 18.7785C22.8307 18.6263 22.753 18.5004 22.689 18.3905C22.8793 18.0146 23.046 17.6245 23.187 17.2223C23.3349 17.1765 23.5122 17.1296 23.7353 17.0718L23.7897 17.0578C24.0001 17.0033 24.2424 16.9405 24.4847 16.8698C24.9882 16.7228 25.6423 16.501 26.1864 16.1151C26.7768 15.6963 27.3334 15.0059 27.3334 14.0001C27.3335 12.9944 26.7769 12.3038 26.1865 11.8851C25.6423 11.4992 24.9882 11.2774 24.4848 11.1304C24.2424 11.0596 24 10.9968 23.7896 10.9424L23.7353 10.9283C23.5123 10.8705 23.3349 10.8237 23.187 10.7779C23.046 10.3757 22.8793 9.98561 22.689 9.6097C22.753 9.49979 22.8307 9.37389 22.9253 9.22163L22.9442 9.1912C23.0557 9.01157 23.1855 8.80256 23.3101 8.58681C23.5603 8.15319 23.8694 7.56083 23.9905 6.92653C24.1224 6.236 24.0471 5.3615 23.3429 4.65731C22.6346 3.94893 21.7576 3.87831 21.0598 4.03049C20.4301 4.16781 19.8513 4.49832 19.4359 4.75878C19.2338 4.88553 19.0375 5.01747 18.8689 5.13075L18.8265 5.15924C18.7031 5.24214 18.5985 5.31191 18.5064 5.3708C18.0949 5.15555 17.666 4.96877 17.2223 4.81315C17.1765 4.66527 17.1296 4.48792 17.0718 4.26487L17.0578 4.21066C17.0033 4.00021 16.9406 3.75776 16.8698 3.51539C16.7228 3.01196 16.501 2.35786 16.1151 1.81376C15.6964 1.22338 15.0059 0.666748 14.0001 0.666748ZM11.9805 7.22587C12.5637 7.05229 12.8684 6.61016 12.9998 6.38454C13.1474 6.13132 13.2457 5.85455 13.3145 5.6365C13.3865 5.40792 13.4517 5.15806 13.5098 4.93384L13.5223 4.88561C13.5786 4.66807 13.6315 4.46394 13.6902 4.26289C13.8001 3.88662 13.9033 3.62295 14.0001 3.45202C14.097 3.62295 14.2002 3.88662 14.31 4.26289C14.3687 4.46391 14.4216 4.66793 14.4779 4.88544L14.4904 4.93384C14.5486 5.15806 14.6137 5.40792 14.6858 5.6365C14.7545 5.85455 14.8529 6.13132 15.0004 6.38454C15.1319 6.61016 15.4365 7.05229 16.0198 7.22587C16.5938 7.39672 17.1377 7.63878 17.6411 7.94211C18.2106 8.28531 18.7813 8.1545 19.0258 8.07866C19.3034 7.99253 19.5561 7.85304 19.7381 7.74437C19.932 7.62869 20.1346 7.49299 20.3133 7.37295L20.35 7.34832C20.525 7.23074 20.6878 7.12138 20.8526 7.01804C21.002 6.92437 21.1313 6.84997 21.2425 6.79226C21.1833 6.92201 21.1036 7.07509 21.0005 7.25381C20.8981 7.43123 20.7889 7.6071 20.6721 7.79512L20.6598 7.81501C20.5446 8.00053 20.4152 8.2091 20.3054 8.40695C20.2016 8.59396 20.072 8.8464 19.9924 9.11828C19.9251 9.34835 19.7977 9.90686 20.1222 10.4677C20.3956 10.9404 20.6157 11.4474 20.7743 11.9804C20.9479 12.5637 21.39 12.8683 21.6157 12.9998C21.8689 13.1473 22.1457 13.2457 22.3637 13.3144C22.5923 13.3865 22.8422 13.4516 23.0664 13.5097L23.1147 13.5223C23.3322 13.5786 23.5363 13.6314 23.7373 13.6901C24.1136 13.8 24.3773 13.9032 24.5482 14.0001C24.3773 14.0969 24.1136 14.2001 23.7373 14.31C23.5362 14.3687 23.3322 14.4216 23.1146 14.4779L23.0663 14.4904C22.8421 14.5485 22.5922 14.6137 22.3637 14.6858C22.1456 14.7545 21.8689 14.8529 21.6156 15.0004C21.39 15.1318 20.9479 15.4365 20.7743 16.0198C20.6157 16.5528 20.3956 17.0597 20.1222 17.5324C19.7977 18.0933 19.9251 18.6518 19.9924 18.8819C20.072 19.1538 20.2016 19.4062 20.3054 19.5932C20.4152 19.7911 20.5446 19.9996 20.6598 20.1852L20.6722 20.2051C20.7889 20.3931 20.8981 20.569 21.0005 20.7464C21.1036 20.9251 21.1833 21.0781 21.2425 21.2079C21.1313 21.1502 21.002 21.0758 20.8526 20.9821C20.6878 20.8788 20.525 20.7694 20.35 20.6518L20.3133 20.6272C20.1346 20.5072 19.932 20.3715 19.7381 20.2558C19.5561 20.1471 19.3034 20.0076 19.0258 19.9215C18.7813 19.8457 18.2106 19.7149 17.6411 20.058C17.1377 20.3614 16.5938 20.6034 16.0198 20.7743C15.4365 20.9479 15.1319 21.39 15.0004 21.6156C14.8529 21.8688 14.7545 22.1456 14.6858 22.3637C14.6137 22.5922 14.5486 22.8421 14.4904 23.0663L14.4779 23.1147C14.4216 23.3322 14.3687 23.5363 14.31 23.7373C14.2002 24.1135 14.097 24.3772 14.0001 24.5481C13.9033 24.3772 13.8001 24.1135 13.6902 23.7373C13.6315 23.5362 13.5786 23.3321 13.5223 23.1145L13.5098 23.0663C13.4517 22.8421 13.3865 22.5922 13.3145 22.3637C13.2457 22.1456 13.1474 21.8688 12.9998 21.6156C12.8684 21.39 12.5637 20.9479 11.9805 20.7743C11.4064 20.6034 10.8626 20.3614 10.3592 20.058C9.78962 19.7149 9.21892 19.8457 8.97449 19.9215C8.69684 20.0076 8.44418 20.1471 8.2621 20.2558C8.06828 20.3715 7.86567 20.5072 7.68694 20.6272L7.65024 20.6519C7.47524 20.7694 7.31247 20.8788 7.14768 20.9821C6.99823 21.0758 6.86881 21.1502 6.75766 21.2079C6.81684 21.0782 6.89652 20.9251 6.99969 20.7464C7.10207 20.569 7.21127 20.3932 7.328 20.2052L7.34041 20.1852C7.45561 19.9997 7.58499 19.7911 7.69483 19.5933C7.79866 19.4062 7.92817 19.1538 8.00778 18.8819C8.07515 18.6519 8.20251 18.0933 7.87806 17.5324C7.6046 17.0597 7.38458 16.5528 7.22594 16.0198C7.05236 15.4365 6.61021 15.1318 6.38459 15.0004C6.13136 14.8529 5.85459 14.7545 5.63654 14.6857C5.40796 14.6137 5.15809 14.5485 4.93386 14.4904L4.8856 14.4779C4.66805 14.4216 4.46396 14.3687 4.26291 14.31C3.88658 14.2001 3.62289 14.097 3.45196 14.0001C3.62289 13.9032 3.88658 13.8 4.26291 13.6901C4.46394 13.6314 4.66796 13.5786 4.88547 13.5223L4.93386 13.5097C5.15809 13.4516 5.40796 13.3865 5.63654 13.3144C5.85459 13.2457 6.13136 13.1473 6.38459 12.9998C6.61021 12.8683 7.05236 12.5637 7.22594 11.9804C7.38458 11.4474 7.6046 10.9404 7.87806 10.4677C8.19666 9.91696 8.07971 9.36605 8.01746 9.13827C7.94324 8.8667 7.82001 8.61255 7.71911 8.42127C7.61254 8.21925 7.48708 8.00724 7.37368 7.8166L7.33844 7.75737C7.23236 7.57917 7.13238 7.41121 7.03722 7.24102C6.9657 7.11313 6.90489 6.99754 6.85406 6.89352C6.93928 6.94018 7.03276 6.99428 7.13501 7.05641C7.29294 7.15238 7.44803 7.25232 7.61348 7.35894L7.68864 7.40735C7.87246 7.52566 8.07866 7.65744 8.27674 7.76983C8.46323 7.87564 8.71778 8.00851 8.99518 8.08893C9.23698 8.15904 9.7998 8.27917 10.3592 7.94211C10.8626 7.63878 11.4064 7.39672 11.9805 7.22587Z" fill="#1E202C"/>
</svg>
