<svg width="24" height="24" viewBox="0 0 24 24" fill="none" xmlns="http://www.w3.org/2000/svg">
<path fill-rule="evenodd" clip-rule="evenodd" d="M15.0497 11.1683C16.8156 10.1239 18 8.20028 18 6C18 2.68629 15.3137 0 12 0C8.68629 0 6 2.68629 6 6C6 8.20028 7.18435 10.1239 8.95033 11.1683C4.21892 12.4977 0.75 16.8437 0.75 22C0.75 22.6904 1.30964 23.25 2 23.25C2.69036 23.25 3.25 22.6904 3.25 22C3.25 17.1675 7.16751 13.25 12 13.25C16.8325 13.25 20.75 17.1675 20.75 22C20.75 22.6904 21.3096 23.25 22 23.25C22.6904 23.25 23.25 22.6904 23.25 22C23.25 16.8437 19.7811 12.4977 15.0497 11.1683ZM15.5 6C15.5 7.933 13.933 9.5 12 9.5C10.067 9.5 8.5 7.933 8.5 6C8.5 4.067 10.067 2.5 12 2.5C13.933 2.5 15.5 4.067 15.5 6Z" fill="#1E202C"/>
</svg>
